{
  "asset": { "version": "2.0", "generator": "psxpipe sample generator" },
  "scene": 0,
  "scenes": [ { "nodes": [0] } ],
  "nodes": [ { "mesh": 0, "name": "Ground" } ],
  "meshes": [ {
    "name": "Ground",
    "primitives": [ {
      "attributes": { "POSITION": 0, "NORMAL": 1, "TEXCOORD_0": 2 },
      "indices": 3,
      "material": 0
    } ]
  } ],
  "materials": [ {
    "name": "GroundMat",
    "pbrMetallicRoughness": { "baseColorFactor": [1.0, 1.0, 1.0, 1.0] }
  } ],
  "buffers": [ { "uri": "ground.bin", "byteLength": 20160 } ],
  "bufferViews": [
    { "buffer": 0, "byteOffset": 0, "byteLength": 6912, "target": 34962 },
    { "buffer": 0, "byteOffset": 6912, "byteLength": 6912, "target": 34962 },
    { "buffer": 0, "byteOffset": 13824, "byteLength": 4608, "target": 34962 },
    { "buffer": 0, "byteOffset": 18432, "byteLength": 1728, "target": 34963 }
  ],
  "accessors": [
    { "bufferView": 0, "componentType": 5126, "count": 576, "type": "VEC3",
       "min": [-1, 0, -1], "max": [1, 0, 1] },
    { "bufferView": 1, "componentType": 5126, "count": 576, "type": "VEC3" },
    { "bufferView": 2, "componentType": 5126, "count": 576, "type": "VEC2" },
    { "bufferView": 3, "componentType": 5123, "count": 864, "type": "SCALAR" }
  ]
}
