{
  "asset": { "version": "2.0", "generator": "psxpipe sample generator" },
  "scene": 0,
  "scenes": [ { "nodes": [0] } ],
  "nodes": [ { "mesh": 0, "name": "Guy" } ],
  "meshes": [ {
    "name": "Guy",
    "primitives": [ {
      "attributes": { "POSITION": 0, "NORMAL": 1, "TEXCOORD_0": 2 },
      "indices": 3,
      "material": 0
    } ]
  } ],
  "materials": [ {
    "name": "GuyMat",
    "pbrMetallicRoughness": { "baseColorFactor": [1.0, 1.0, 1.0, 1.0] }
  } ],
  "buffers": [ { "uri": "guy.bin", "byteLength": 3360 } ],
  "bufferViews": [
    { "buffer": 0, "byteOffset": 0, "byteLength": 1152, "target": 34962 },
    { "buffer": 0, "byteOffset": 1152, "byteLength": 1152, "target": 34962 },
    { "buffer": 0, "byteOffset": 2304, "byteLength": 768, "target": 34962 },
    { "buffer": 0, "byteOffset": 3072, "byteLength": 288, "target": 34963 }
  ],
  "accessors": [
    { "bufferView": 0, "componentType": 5126, "count": 96, "type": "VEC3",
       "min": [-0.3, 0, -0.17], "max": [0.3, 1.31, 0.17] },
    { "bufferView": 1, "componentType": 5126, "count": 96, "type": "VEC3" },
    { "bufferView": 2, "componentType": 5126, "count": 96, "type": "VEC2" },
    { "bufferView": 3, "componentType": 5123, "count": 144, "type": "SCALAR" }
  ]
}
